<?xml version="1.0" standalone="no"?>
<!DOCTYPE svg PUBLIC "-//W3C//DTD SVG 20010904//EN"
 "http://www.w3.org/TR/2001/REC-SVG-20010904/DTD/svg10.dtd">
<svg version="1.0" xmlns="http://www.w3.org/2000/svg"
 width="223.000000pt" height="223.000000pt" viewBox="0 0 223.000000 223.000000"
 preserveAspectRatio="xMidYMid meet">
<metadata>
Created by potrace 1.14, written by Peter Selinger 2001-2017
</metadata>
<g transform="translate(0.000000,223.000000) scale(0.100000,-0.100000)"
fill="#000000" stroke="none">
<path d="M1696 2189 c-10 -16 -21 -29 -26 -29 -4 0 -21 -20 -37 -45 -15 -25
-30 -45 -33 -45 -3 0 -5 27 -5 59 1 65 -5 66 -49 12 l-19 -23 -17 22 c-15 19
-18 20 -29 6 -11 -13 -10 -25 9 -70 13 -33 21 -70 19 -94 -2 -23 3 -47 10 -56
20 -24 5 -33 -18 -12 -11 10 -24 15 -30 12 -6 -4 -76 -7 -156 -8 -145 -1 -147
-1 -155 -24 -6 -14 -18 -24 -30 -24 -20 0 -20 -5 -20 -305 l0 -305 -26 -40
c-23 -35 -25 -44 -15 -66 9 -22 14 -24 26 -14 13 11 15 3 15 -57 l0 -70 428 1
427 1 3 23 c2 15 10 22 25 22 l22 0 0 428 0 427 -146 3 c-128 3 -147 1 -153
-13 -5 -15 6 -16 124 -10 113 6 130 5 130 -9 0 -13 -23 -15 -165 -15 -161 -1
-166 0 -174 21 -8 22 -8 21 -16 -3 l-8 -24 -4 28 c-3 21 -10 27 -29 27 -15 0
-23 4 -19 10 4 6 12 7 18 3 7 -3 4 3 -5 14 -20 22 -23 33 -8 33 6 0 10 -6 10
-12 0 -12 59 -52 66 -45 7 7 -28 47 -37 42 -16 -11 -10 14 9 33 21 21 131 178
138 197 3 7 -3 15 -14 17 -14 4 -24 -3 -36 -23z m-146 -305 c0 -8 -5 -12 -10
-9 -6 4 -8 11 -5 16 9 14 15 11 15 -7z m-34 -3 c-5 -7 -64 -11 -174 -10 -200
1 -181 13 30 17 106 3 148 1 144 -7z m464 -243 c1 -96 10 -448 14 -495 3 -45
-8 -79 -19 -53 -8 23 -11 610 -2 610 4 0 7 -28 7 -62z"/>
<path d="M1438 2098 c-15 -12 -14 -18 10 -76 17 -41 28 -58 34 -50 13 21 8 71
-10 106 -15 28 -20 31 -34 20z"/>
<path d="M180 1896 c0 -18 -7 -25 -27 -29 l-28 -5 5 -424 5 -423 259 -1 c244
-1 260 -2 267 -20 7 -17 8 -17 8 -1 1 19 5 19 214 19 107 -1 107 -1 107 24 0
19 5 24 24 24 l24 0 -2 136 c-2 130 -1 137 20 146 19 9 21 16 16 71 -2 34 -6
64 -8 66 -2 2 -15 -4 -28 -13 -33 -21 -50 -21 -38 1 6 11 6 23 -1 34 -5 9 -7
24 -3 34 6 17 8 16 31 -5 20 -19 25 -20 25 -7 0 9 -13 26 -30 39 l-30 22 0
115 c0 63 2 112 5 109 3 -3 8 -41 11 -84 6 -89 9 -104 22 -104 6 0 9 66 9 150
l0 149 -429 1 -428 0 0 -24z m452 -1 c321 -9 347 -10 355 -19 4 -3 -172 -6
-390 -5 -374 1 -397 3 -397 19 0 16 9 18 88 15 48 -2 203 -6 344 -10z m381
-657 c-1 -29 -2 -74 -2 -100 -1 -27 -5 -48 -10 -48 -5 0 -8 41 -6 93 3 107 3
107 13 107 4 0 6 -24 5 -52z"/>
<path d="M719 968 c-2 -41 -3 -46 -11 -54 -4 -4 -10 1 -14 10 -10 26 -24 19
-24 -13 0 -18 -6 -31 -16 -35 -22 -8 -31 1 -16 16 15 15 16 42 2 33 -6 -3 -10
4 -11 17 0 22 -1 22 -9 2 -8 -20 -14 -21 -224 -20 l-215 1 -3 -23 c-2 -12 -7
-23 -13 -23 -40 -3 -40 2 -38 -431 1 -227 2 -418 2 -423 1 -7 148 -10 428 -10
l428 0 5 26 c4 19 11 25 26 24 20 -1 22 3 21 61 -1 57 -2 62 -18 53 -10 -5
-20 -9 -23 -9 -3 0 -6 41 -6 92 l0 91 23 -21 23 -22 2 117 c0 105 -1 116 -14
99 -8 -11 -15 -30 -15 -43 -1 -13 -3 -27 -4 -33 -1 -5 -3 -19 -4 -30 0 -11 -4
-20 -8 -20 -5 0 -8 107 -8 237 l0 238 -78 1 -77 2 -55 58 c-53 57 -54 58 -56
32z m-267 -80 c82 -2 148 -6 148 -10 0 -4 -90 -7 -200 -6 -142 0 -200 4 -200
12 0 8 19 11 53 10 28 -2 118 -4 199 -6z m308 2 c0 -5 -5 -10 -11 -10 -5 0 -7
5 -4 10 3 6 8 10 11 10 2 0 4 -4 4 -10z m240 -760 c0 -11 -2 -20 -4 -20 -2 0
-6 9 -9 20 -3 11 -1 20 4 20 5 0 9 -9 9 -20z"/>
<path d="M855 921 c-3 -2 0 -11 5 -21 8 -15 16 -16 60 -8 86 15 85 17 85 -97
1 -96 6 -125 25 -125 9 0 10 249 1 251 -18 3 -173 3 -176 0z"/>
<path d="M1391 917 c-16 -16 -13 -35 7 -46 22 -12 42 3 42 30 0 20 -34 31 -49
16z"/>
<path d="M1238 913 c-15 -2 -37 -16 -48 -30 -41 -52 -17 -102 61 -128 54 -18
69 -36 49 -60 -18 -21 -58 -19 -72 5 -16 26 -58 27 -58 2 0 -35 46 -66 96 -66
57 1 94 33 94 80 0 39 -32 68 -92 84 -21 6 -42 18 -45 26 -13 34 46 53 73 23
23 -25 54 -25 54 1 0 18 -35 60 -51 60 -4 0 -13 2 -21 3 -7 2 -25 2 -40 0z"/>
<path d="M1719 892 c-1 -4 -3 -16 -4 -27 -1 -11 -3 -26 -3 -32 -1 -7 -8 -12
-14 -10 -7 1 -13 -6 -13 -15 0 -10 4 -18 9 -17 17 1 22 -21 21 -86 -1 -61 0
-65 21 -65 27 0 30 10 28 83 -1 53 3 62 27 59 4 -1 9 8 12 18 3 11 1 21 -4 21
-5 1 -15 2 -21 3 -7 0 -14 12 -14 26 -1 14 -2 30 -3 35 -1 12 -40 18 -42 7z"/>
<path d="M1389 803 c-1 -13 -1 -32 -1 -43 0 -113 1 -120 26 -120 23 0 23 2 22
92 -1 87 -2 91 -23 93 -18 1 -23 -4 -24 -22z"/>
<path d="M1493 822 c-7 -5 -12 -41 -12 -95 0 -86 0 -87 24 -87 24 0 25 3 25
58 0 60 11 82 42 82 25 0 36 -28 34 -85 -1 -47 1 -50 25 -53 l26 -3 -2 77 c-2
67 -5 80 -25 96 -25 21 -43 22 -71 8 -12 -7 -25 -7 -37 -1 -10 5 -23 6 -29 3z"/>
<path d="M1827 725 c-8 -19 7 -27 41 -23 28 3 44 16 36 30 -9 14 -72 9 -77 -7z"/>
<path d="M1715 600 c-8 -25 1 -40 24 -40 24 0 43 23 35 44 -9 23 -51 20 -59
-4z"/>
<path d="M1249 608 c-1 -2 -2 -73 -3 -158 -1 -85 -5 -160 -9 -167 -5 -7 -30
-12 -67 -11 -33 1 -63 -1 -67 -5 -3 -4 -6 -51 -6 -104 l0 -97 34 1 c19 1 86 4
149 7 63 3 158 8 210 11 52 3 129 8 170 10 41 2 134 7 205 11 72 3 143 7 159
8 27 1 31 7 51 66 11 36 24 71 28 78 10 15 46 14 -421 14 -383 1 -383 1 -381
22 0 12 1 87 0 169 l-1 147 -25 0 c-14 0 -25 -1 -26 -2z"/>
<path d="M1369 506 c-34 -20 -53 -67 -46 -113 9 -50 36 -74 91 -80 42 -5 48
-3 80 29 30 30 34 40 32 77 -6 78 -91 124 -157 87z m97 -64 c17 -24 1 -66 -29
-76 -54 -19 -92 56 -45 88 25 18 56 12 74 -12z"/>
<path d="M1550 413 l0 -103 25 0 c20 0 25 5 26 28 2 105 16 137 56 129 24 -4
41 22 28 44 -9 14 -57 2 -72 -18 -12 -15 -13 -15 -13 3 0 15 -7 20 -25 20
l-25 0 0 -103z"/>
<path d="M1722 502 c-6 -14 -7 -84 -3 -173 1 -11 10 -16 26 -16 l26 0 -3 100
c-3 87 -5 100 -21 103 -9 1 -21 -5 -25 -14z"/>
<path d="M1835 496 c-41 -41 -28 -76 39 -99 22 -8 41 -18 43 -24 7 -19 -29
-24 -53 -8 -49 32 -74 5 -34 -35 43 -43 140 -13 140 42 0 25 -35 58 -71 65
-36 7 -43 17 -24 33 12 10 19 10 33 -2 23 -20 52 -19 52 2 0 24 -24 41 -65 47
-27 4 -40 -1 -60 -21z"/>
</g>
</svg>
